<svg preserveAspectRatio="none" overflow="visible" style="display: block;" width="640" height="858.828" viewBox="0 0 640 858.828" fill="none" xmlns="http://www.w3.org/2000/svg">
<g id="Group 36634" opacity="0.3">
<path id="Vector" d="M297.508 588.3C227.785 588.3 159.697 563.661 105.741 518.929L105.694 518.879C105.04 518.382 104.409 517.861 103.825 517.389C64.2806 485.274 40.5725 443.249 29.968 421.045C29.8279 420.746 29.6877 420.448 29.5476 420.175L29.4308 419.927C29.244 419.505 28.987 418.958 28.8002 418.536C27.3753 415.456 26.3476 413.097 25.3432 410.737C25.2498 410.513 25.133 410.265 25.0396 410.017L24.6191 409.023C23.9884 407.583 23.3344 406.018 22.8439 404.85C7.68471 367.793 0 327.631 0 285.507V12.4187C0 5.56359 5.23214 0 11.6789 0H245.794C322.478 0 395.774 28.265 452.183 79.5792C510.461 132.582 544.353 204.114 547.67 281.011C548.628 304.507 546.712 327.854 542.018 350.655C540.593 357.535 533.982 361.708 527.582 359.87L437.188 333.964C431.325 332.275 427.634 326.116 428.756 319.782C430.694 308.804 431.465 297.652 430.998 286.475C427.167 197.06 344.084 124.187 245.817 124.187H128.491C122.044 124.187 116.812 129.751 116.812 136.606V285.507C116.812 310.841 121.11 333.691 129.963 355.325C130.009 355.449 130.056 355.573 130.103 355.697L130.687 357.063C131.037 357.883 131.364 358.653 131.645 359.274C132.275 360.739 132.929 362.229 133.817 364.167C133.887 364.291 133.934 364.44 134.004 364.564L134.284 365.185C144.515 386.446 159.627 406.44 174.74 418.71C174.833 418.784 174.926 418.859 175.02 418.933L175.113 419.008C175.954 419.678 176.795 420.349 177.449 420.871C210.991 448.763 253.666 464.137 297.555 464.137C305.66 464.137 313.765 463.616 321.73 462.622C327.943 461.828 333.666 466.224 334.74 472.756L351.044 570.69C352.189 577.595 347.751 584.202 341.211 585.17C326.822 587.282 312.177 588.35 297.555 588.35L297.508 588.3ZM104.69 518.035C104.9 518.209 105.157 518.457 105.484 518.705C105.484 518.705 105.46 518.681 105.437 518.681C105.18 518.482 104.947 518.258 104.69 518.06V518.035ZM175.277 419.157C175.627 419.455 175.978 419.753 176.305 420.051C176.048 419.827 175.697 419.529 175.277 419.157ZM130.196 355.97C130.29 356.169 130.36 356.393 130.43 356.591C130.36 356.417 130.29 356.219 130.196 355.97Z" fill="#8FFD76"/>
<path id="Vector_2" d="M344.224 858.828H58.3945C26.1374 858.828 0 831.035 0 796.734V621.357C0 614.502 5.23215 608.938 11.6789 608.938H105.11C111.557 608.938 116.789 614.502 116.789 621.357V722.222C116.789 729.077 122.021 734.641 128.468 734.641H344.224C397.643 734.641 447.932 712.212 482.198 673.143C515.156 635.564 528.961 587.752 521.066 538.524C520.996 538.077 520.925 537.655 520.879 537.208C515.927 501.74 496.283 466.371 466.946 440.143C432.586 410.214 390.145 394.392 344.224 394.392C337.053 394.392 329.952 394.765 322.992 395.51C316.872 396.156 311.359 391.511 310.425 385.053L295.99 286.796C294.962 279.867 299.564 273.359 306.104 272.54C318.6 270.975 331.377 270.205 344.224 270.205C416.563 270.205 486.543 296.533 541.293 344.37C541.434 344.494 541.574 344.618 541.737 344.767C593.381 390.766 626.947 452.388 636.313 518.306C650.047 605.113 625.031 692.367 567.618 757.839C511.325 822.019 429.9 858.828 344.224 858.828Z" fill="#8FFD76"/>
</g>
</svg>
